<svg xmlns="http://www.w3.org/2000/svg" width="19.784" height="17.013" viewBox="0 0 19.784 17.013">
  <g id="_272340" data-name="272340" transform="translate(0 -35.857)">
    <g id="Group_60" data-name="Group 60" transform="translate(0 35.857)">
      <g id="Group_59" data-name="Group 59" transform="translate(0 0)">
        <path id="Path_72" data-name="Path 72" d="M19.528,50.175,11.413,36.717a1.777,1.777,0,0,0-3.044,0L.254,50.175a1.777,1.777,0,0,0,1.522,2.7h16.23a1.777,1.777,0,0,0,1.522-2.7Zm-1.1,1.158a.49.49,0,0,1-.426.249H1.776a.489.489,0,0,1-.419-.742L9.472,37.382a.489.489,0,0,1,.838,0L18.425,50.84A.49.49,0,0,1,18.432,51.333Z" transform="translate(0 -35.857)" fill="#90a4ae"/>
      </g>
    </g>
    <g id="Group_62" data-name="Group 62" transform="translate(9.025 41.156)">
      <g id="Group_61" data-name="Group 61" transform="translate(0 0)">
        <path id="Path_73" data-name="Path 73" d="M234.45,173.005c-.49,0-.872.263-.872.729,0,1.422.167,3.465.167,4.888,0,.37.323.526.705.526.287,0,.693-.155.693-.526,0-1.422.167-3.465.167-4.888A.768.768,0,0,0,234.45,173.005Z" transform="translate(-233.578 -173.005)" fill="#90a4ae"/>
      </g>
    </g>
    <g id="Group_64" data-name="Group 64" transform="translate(8.989 48.123)">
      <g id="Group_63" data-name="Group 63">
        <path id="Path_74" data-name="Path 74" d="M233.571,353.306a.92.92,0,1,0,0,1.84.92.92,0,0,0,0-1.84Z" transform="translate(-232.651 -353.306)" fill="#90a4ae"/>
      </g>
    </g>
  </g>
</svg>
