<svg id="_272340" data-name="272340" xmlns="http://www.w3.org/2000/svg" width="52.285" height="44.961" viewBox="0 0 52.285 44.961">
  <g id="Group_60" data-name="Group 60">
    <g id="Group_59" data-name="Group 59" transform="translate(0 0)">
      <path id="Path_72" data-name="Path 72" d="M51.611,73.7,30.164,38.129a4.7,4.7,0,0,0-8.045,0L.673,73.7A4.7,4.7,0,0,0,4.7,80.818H47.588A4.7,4.7,0,0,0,51.611,73.7Zm-2.9,3.061a1.3,1.3,0,0,1-1.126.657H4.7a1.293,1.293,0,0,1-1.107-1.961L25.035,39.887a1.293,1.293,0,0,1,2.215,0L48.7,75.454A1.3,1.3,0,0,1,48.714,76.757Z" transform="translate(0 -35.857)" fill="#c9b53e"/>
    </g>
  </g>
  <g id="Group_62" data-name="Group 62" transform="translate(23.853 14.005)">
    <g id="Group_61" data-name="Group 61" transform="translate(0 0)">
      <path id="Path_73" data-name="Path 73" d="M235.883,173.005c-1.295,0-2.305.695-2.305,1.927,0,3.758.442,9.159.442,12.917,0,.979.853,1.39,1.863,1.39.758,0,1.832-.411,1.832-1.39,0-3.758.442-9.159.442-12.917A2.03,2.03,0,0,0,235.883,173.005Z" transform="translate(-233.578 -173.005)" fill="#fff"/>
    </g>
  </g>
  <g id="Group_64" data-name="Group 64" transform="translate(23.758 32.417)">
    <g id="Group_63" data-name="Group 63">
      <path id="Path_74" data-name="Path 74" d="M235.083,353.306a2.432,2.432,0,1,0,0,4.864,2.432,2.432,0,0,0,0-4.864Z" transform="translate(-232.651 -353.306)" fill="#fff"/>
    </g>
  </g>
</svg>
