<svg id="applogo2" xmlns="http://www.w3.org/2000/svg" width="172.42" height="172.42" viewBox="0 0 172.42 172.42">
  <g id="Group_87" data-name="Group 87">
    <path id="Path_717" data-name="Path 717" d="M52.78,140.06l-7.99,7.99a74.28,74.28,0,0,0,82.6-.06L119.4,140A63.218,63.218,0,0,1,52.78,140.06ZM24.54,127.79l7.99-7.99a63.257,63.257,0,0,1,.05-66.63L24.6,45.2A74.245,74.245,0,0,0,24.54,127.79Zm94.77-94.77,7.99-7.99a74.279,74.279,0,0,0-82.42-.06l7.99,7.99A63.222,63.222,0,0,1,119.31,33.02Zm20.31,86.7,7.99,7.99a74.259,74.259,0,0,0-.06-82.43l-7.99,7.99A63.218,63.218,0,0,1,139.62,119.72Z"/>
  </g>
  <path id="Path_718" data-name="Path 718" d="M163.74,134.76v28.97h-28.8v8.68h37.47V134.75h-8.67ZM134.76,0V8.68h28.98v29.9h8.68V0ZM8.68,163.74V134.95H0v37.47H38.4v-8.68H8.68ZM0,0V38.4H8.68V8.68h29.9V0Z"/>
  <g id="Group_88" data-name="Group 88">
    <path id="Path_719" data-name="Path 719" d="M99.78,103.35l-25.31.04-4.79,13.02-15.35.02L80.31,53.21l13.38-.02,26.32,63.14-15.35.02ZM78.35,92.84l17.51-.03L87.02,69.18Z"/>
  </g>
</svg>
