<?xml version="1.0" encoding="utf-8"?>
<!-- Generator: Adobe Illustrator 23.0.0, SVG Export Plug-In . SVG Version: 6.00 Build 0)  -->
<svg version="1.0" id="Layer_1" xmlns="http://www.w3.org/2000/svg" xmlns:xlink="http://www.w3.org/1999/xlink" x="0px" y="0px"
	 width="172.42px" height="172.42px" viewBox="0 0 172.42 172.42" style="enable-background:new 0 0 172.42 172.42;"
	 xml:space="preserve">
<g>
	<path style="fill:#FFFFFF;" d="M52.78,140.06l-7.99,7.99c24.88,16.7,57.74,16.68,82.6-0.06L119.4,140
		C99.1,152.67,73.1,152.69,52.78,140.06z M24.54,127.79l7.99-7.99c-12.63-20.32-12.61-46.32,0.05-66.63L24.6,45.2
		C7.86,70.06,7.83,102.91,24.54,127.79z M119.31,33.02l7.99-7.99C102.48,8.37,69.72,8.35,44.88,24.97l7.99,7.99
		C73.15,20.4,99.05,20.43,119.31,33.02z M139.62,119.72l7.99,7.99c16.63-24.84,16.61-57.6-0.06-82.43l-7.99,7.99
		C152.16,73.53,152.18,99.44,139.62,119.72z"/>
</g>
<path style="fill:#FFFFFF;" d="M163.74,134.76v28.97h-28.8v8.68h37.47v-37.66H163.74z M134.76,0v8.68h28.98v29.9h8.68V0H134.76z
	 M8.68,163.74v-28.79H0v37.47h38.4v-8.68H8.68z M0,0v38.4h8.68V8.68h29.9V0H0z"/>
<g>
	<path style="fill:#FFFFFF;" d="M99.78,103.35l-25.31,0.04l-4.79,13.02l-15.35,0.02l25.98-63.22l13.38-0.02l26.32,63.14l-15.35,0.02
		L99.78,103.35z M78.35,92.84l17.51-0.03l-8.84-23.63L78.35,92.84z"/>
</g>
</svg>
