<svg xmlns="http://www.w3.org/2000/svg" width="17.171" height="17.171" viewBox="0 0 17.171 17.171">
  <g id="_1170667" data-name="1170667" transform="translate(0 0)">
    <path id="Path_75" data-name="Path 75" d="M32.509,8.049a1.5,1.5,0,0,0,1.045-.424l1.489.744a1.478,1.478,0,0,0-.018.183,1.509,1.509,0,1,0,3.018,0,1.491,1.491,0,0,0-.151-.646l2.02-2.02a1.491,1.491,0,0,0,.646.151,1.511,1.511,0,0,0,1.509-1.509,1.487,1.487,0,0,0-.075-.447l1.755-1.316a1.508,1.508,0,1,0-.674-1.255,1.487,1.487,0,0,0,.075.447L41.393,3.272a1.5,1.5,0,0,0-2.193,1.9l-2.02,2.02a1.483,1.483,0,0,0-1.691.273L34,6.723a1.478,1.478,0,0,0,.018-.183,1.509,1.509,0,1,0-1.509,1.509Zm0,0" transform="translate(-29.96)" fill="#90a4ae"/>
    <path id="Path_76" data-name="Path 76" d="M16.668,161.134h-.537V150.5a.5.5,0,0,0-.5-.5H13.616a.5.5,0,0,0-.5.5v10.631H12.107v-7.613a.5.5,0,0,0-.5-.5H9.592a.5.5,0,0,0-.5.5v7.613H8.082v-3.588a.5.5,0,0,0-.5-.5H5.567a.5.5,0,0,0-.5.5v3.588H4.058v-5.6a.5.5,0,0,0-.5-.5H1.543a.5.5,0,0,0-.5.5v5.6H.5a.5.5,0,1,0,0,1.006H16.668a.5.5,0,1,0,0-1.006Zm0,0" transform="translate(0 -144.969)" fill="#90a4ae"/>
  </g>
</svg>
