<svg version="1.1" fill="#fff" xmlns="http://www.w3.org/2000/svg" xmlns:xlink="http://www.w3.org/1999/xlink" x="0px" y="0px"
	 width="10px" height="16px" viewBox="0 0 984.85 984.85" style="enable-background:new 0 0 984.85 984.85;"
	 xml:space="preserve">
	<g>
		<path d="M652.075,954.791c12.101,12,28.7,20.1,45.7,21.5c17.2,1.399,34.9-2.8,49.2-12.5c3.9-2.601,7.6-5.7,10.9-9l0.1-0.101
			l204.9-204.899c29.3-29.3,29.3-76.8,0-106.101c-29.301-29.3-76.801-29.3-106.101,0l-76.899,76.9v-637c0-41.4-33.601-75-75-75
			c-41.4,0-75,33.6-75,75v637l-78.9-78.9c-29.3-29.3-76.8-29.3-106.1,0c-29.301,29.301-29.301,76.801,0,106.101l207,207
			C651.975,954.69,651.975,954.791,652.075,954.791z"/>
		<path d="M74.975,365.491c19.2,0,38.4-7.3,53-22l78.9-78.9v637c0,41.4,33.6,75,75,75s75-33.6,75-75v-637l76.899,76.9
			c14.601,14.6,33.8,22,53,22s38.4-7.3,53-22c29.3-29.3,29.3-76.8,0-106.1c-5.399-5.4-10.899-10.9-16.3-16.3
			c-13.3-13.3-26.5-26.7-39.9-39.9c-17.199-17.1-34.3-34.2-51.399-51.4c-16.8-17-34.2-33.5-50.9-50.7
			c-16.2-16.6-32.6-32.9-49.899-48.5c-18-16.2-41.5-24.2-65.7-18.5c-6.2,1.4-12.8,3.8-18.4,6.9c-16.7,9.4-30,24.9-43.5,38.3
			c-16.5,16.3-32.7,32.9-49.1,49.4c-19.5,19.6-39.2,39.1-58.8,58.6c-16.4,16.6-33,33.2-49.5,49.8c-8,8-16,15.9-24,23.9
			c-0.1,0.1-0.3,0.3-0.4,0.4c-29.3,29.3-29.3,76.8,0,106.1C36.575,358.191,55.775,365.491,74.975,365.491z"/>
	</g>
</svg>
