<svg id="_80932" data-name="80932" xmlns="http://www.w3.org/2000/svg" width="50.463" height="47.493" viewBox="0 0 50.463 47.493">
  <path id="Path_93" data-name="Path 93" d="M21.732,47.644H4.123A.744.744,0,0,1,3.38,46.9V18.251a.744.744,0,0,1,.743-.743H46.338a.744.744,0,0,1,.743.743v6.275a7.6,7.6,0,0,1,3.38,1.217V18.251a4.128,4.128,0,0,0-4.123-4.123H4.123A4.128,4.128,0,0,0,0,18.251V46.9a4.128,4.128,0,0,0,4.123,4.123h14.15v5.527H16.041a2.535,2.535,0,1,0,0,5.071h7.117A7.6,7.6,0,0,1,21.733,57.2V47.644Z" transform="translate(0 -14.128)" fill="#fff"/>
  <path id="Path_94" data-name="Path 94" d="M249.726,175.6v-3.652H242.3V148.623a.893.893,0,0,1,.891-.892H260a.892.892,0,0,1,.891.892v7.219h1.266a4.171,4.171,0,0,1,2.114.588v-7.807A4.277,4.277,0,0,0,260,144.351H243.189a4.277,4.277,0,0,0-4.271,4.273v25.114a4.276,4.276,0,0,0,4.271,4.272h7.3A4.469,4.469,0,0,1,249.726,175.6Z" transform="translate(-213.805 -130.663)" fill="#c9b53e"/>
  <path id="Path_95" data-name="Path 95" d="M372.153,273.775h-8.2a2.119,2.119,0,0,0-2.116,2.117V291.42a2.118,2.118,0,0,0,2.116,2.116h8.2a2.118,2.118,0,0,0,2.116-2.116V275.892A2.119,2.119,0,0,0,372.153,273.775Zm-7.779,2.535h7.36v13.423h-7.36Zm3.681,16.2a.909.909,0,1,1,.6-.239A.884.884,0,0,1,368.055,292.507Z" transform="translate(-323.806 -246.484)" fill="#c9b53e"/>
</svg>
