<svg xmlns="http://www.w3.org/2000/svg" width="49.367" height="46.462" viewBox="0 0 49.367 46.462">
  <g id="Group_3" data-name="Group 3" transform="translate(-5619.488 -3939.763)">
    <g id="_80932" data-name="80932" transform="translate(5619.488 3939.763)">
      <path id="Path_93" data-name="Path 93" d="M21.261,46.916H4.033a.728.728,0,0,1-.726-.727V18.161a.728.728,0,0,1,.726-.726h41.3a.728.728,0,0,1,.726.726V24.3a7.432,7.432,0,0,1,3.307,1.191V18.161a4.038,4.038,0,0,0-4.033-4.033H4.033A4.038,4.038,0,0,0,0,18.161V46.189a4.038,4.038,0,0,0,4.033,4.034H17.876V55.63H15.693a2.48,2.48,0,1,0,0,4.96h6.962a7.432,7.432,0,0,1-1.395-4.323V46.916Z" transform="translate(0 -14.128)" fill="#90a4ae"/>
      <path id="Path_94" data-name="Path 94" d="M249.491,174.921v-3.572h-7.266V148.531a.873.873,0,0,1,.872-.873h16.441a.873.873,0,0,1,.872.873v7.062h1.239a4.08,4.08,0,0,1,2.068.576v-7.637a4.184,4.184,0,0,0-4.179-4.18H243.1a4.184,4.184,0,0,0-4.179,4.18V173.1a4.184,4.184,0,0,0,4.179,4.18h7.14A4.372,4.372,0,0,1,249.491,174.921Z" transform="translate(-214.351 -130.96)" fill="#90a4ae"/>
      <path id="Path_95" data-name="Path 95" d="M371.929,273.775h-8.02a2.073,2.073,0,0,0-2.07,2.071v15.191a2.072,2.072,0,0,0,2.07,2.07h8.02a2.072,2.072,0,0,0,2.07-2.07V275.846A2.073,2.073,0,0,0,371.929,273.775Zm-7.61,2.48h7.2v13.131h-7.2Zm3.6,15.846a.889.889,0,1,1,.584-.234A.865.865,0,0,1,367.92,292.1Z" transform="translate(-324.632 -247.076)" fill="#90a4ae"/>
    </g>
  </g>
</svg>
