<svg xmlns="http://www.w3.org/2000/svg" width="16.027" height="13.677" viewBox="0 0 16.027 13.677">
  <g id="_2214057" data-name="2214057" transform="translate(-8.722 -22.96)">
    <path id="Path_120" data-name="Path 120" d="M59.3,64h-.665v7.312a.665.665,0,0,1-.665.665H48v.665a.665.665,0,0,0,.665.665H59.3a.665.665,0,0,0,.665-.665V64.665A.665.665,0,0,0,59.3,64Z" transform="translate(-35.216 -36.668)" fill="#fff"/>
    <path id="Path_121" data-name="Path 121" d="M35.3,40h-.665v7.312a.665.665,0,0,1-.665.665H24v.665a.665.665,0,0,0,.665.665H35.3a.665.665,0,0,0,.665-.665V40.665A.665.665,0,0,0,35.3,40Z" transform="translate(-13.21 -14.662)" fill="#fff"/>
    <rect id="Rectangle_160" data-name="Rectangle 160" width="12" height="9" rx="1" transform="translate(8.722 22.96)" fill="#fff"/>
  </g>
</svg>
