<svg id="_1170667" data-name="1170667" xmlns="http://www.w3.org/2000/svg" width="48" height="48" viewBox="0 0 48 48">
  <path id="Path_75" data-name="Path 75" d="M35.219,22.5a4.2,4.2,0,0,0,2.92-1.186L42.3,23.4a4.132,4.132,0,0,0-.052.511,4.219,4.219,0,1,0,8.438,0,4.167,4.167,0,0,0-.423-1.807l5.647-5.647a4.168,4.168,0,0,0,1.807.423,4.224,4.224,0,0,0,4.219-4.219,4.155,4.155,0,0,0-.211-1.25l4.906-3.679A4.216,4.216,0,1,0,64.75,4.219a4.155,4.155,0,0,0,.211,1.25L60.054,9.147a4.2,4.2,0,0,0-6.131,5.316l-5.647,5.647a4.146,4.146,0,0,0-4.727.763l-4.163-2.081a4.132,4.132,0,0,0,.052-.511A4.219,4.219,0,1,0,35.219,22.5Zm0,0" transform="translate(-28.094 0)" fill="#c9b53e"/>
  <path id="Path_76" data-name="Path 76" d="M46.594,181.125h-1.5V151.406A1.406,1.406,0,0,0,43.688,150H38.063a1.406,1.406,0,0,0-1.406,1.406v29.719H33.844V159.844a1.406,1.406,0,0,0-1.406-1.406H26.813a1.406,1.406,0,0,0-1.406,1.406v21.281H22.594V171.094a1.406,1.406,0,0,0-1.406-1.406H15.563a1.406,1.406,0,0,0-1.406,1.406v10.031H11.344V165.469a1.406,1.406,0,0,0-1.406-1.406H4.313a1.406,1.406,0,0,0-1.406,1.406v15.656h-1.5a1.406,1.406,0,0,0,0,2.813H46.594a1.406,1.406,0,0,0,0-2.813Zm0,0" transform="translate(0 -135.937)" fill="#fff"/>
</svg>
