<svg xmlns="http://www.w3.org/2000/svg" width="35.272" height="35.272" viewBox="0 0 35.272 35.272">
  <g id="soc_workflow_ce_App_full" data-name="SOC Workflow App full" transform="translate(0 0)">
    <g id="Group_78" data-name="Group 78">
      <g id="Group_77" data-name="Group 77">
        <g id="Group_22" data-name="Group 22">
          <g id="Rectangle_3" data-name="Rectangle 3">
            <path id="Path_1" data-name="Path 1" d="M18.057,253.928l-1.88,5.116h3.788Zm0,0-1.88,5.116h3.788Zm0,0-1.88,5.116h3.788Zm0,0-1.88,5.116h3.788ZM33.268,240H2a2,2,0,0,0-2,2v31.264a2,2,0,0,0,2,2H33.268a2,2,0,0,0,2-2V242A2,2,0,0,0,33.268,240Zm-7.724,6.217-1.489,1.489h0a11.742,11.742,0,0,0-12.367,0l-1.491-1.489A13.821,13.821,0,0,1,25.544,246.217Zm-.309,17.9H21.919l-1.082-2.8H15.351l-1.042,2.818H10.994l5.635-13.7h2.9ZM4.05,243.782h6.2v1.4H5.447v4.768H4.05Zm3.838,20.091L6.4,265.362a13.884,13.884,0,0,1,0-15.385l1.491,1.491A11.809,11.809,0,0,0,7.888,263.873Zm2.327,7.585H4.05v-6.02h1.4v4.623h4.768Zm-.036-2.315,1.489-1.491a11.765,11.765,0,0,0,12.4-.02l1.489,1.491A13.815,13.815,0,0,1,10.179,269.143Zm21.548,2.331h-6.02v-1.4H30.33v-4.655h1.4Zm-3.912-19.987L29.3,250a13.821,13.821,0,0,1,.02,15.349l-1.489-1.491v0A11.7,11.7,0,0,0,27.815,251.487Zm3.928-1.5h-1.4v-4.806H25.69v-1.4h6.052Zm-15.566,9.06h3.788l-1.908-5.116Zm1.88-5.116-1.88,5.116h3.788Zm0,0-1.88,5.116h3.788Zm0,0-1.88,5.116h3.788Zm0,0-1.88,5.116h3.788Z" transform="translate(0 -240)" fill="#fff"/>
          </g>
        </g>
      </g>
    </g>
  </g>
</svg>
