<svg xmlns="http://www.w3.org/2000/svg" width="101.824" height="21.79" viewBox="0 0 101.824 21.79">
  <path id="diageo-vector-logo" d="M39.618,257.639H43.1v21.095H39.618Zm-6.364,2.529c-2-1.748-4.888-2.529-8.723-2.529H20v21.095h4.446c3.92,0,6.89-.866,8.893-2.7a10.7,10.7,0,0,0-.085-15.868ZM31,273.507c-1.307,1.222-3.479,1.918-6.449,1.918h-.967V260.949h.967c2.97,0,5.057.611,6.364,1.748A7.465,7.465,0,0,1,31,273.507Zm87.6-12.983a10.469,10.469,0,0,0-7.756-3.224,11.01,11.01,0,0,0-10.98,10.9,10.98,10.98,0,0,0,21.96,0A10.542,10.542,0,0,0,118.6,260.524Zm-2.529,12.983a7.17,7.17,0,0,1-5.312,2.172,7.511,7.511,0,0,1-7.5-7.586,7.711,7.711,0,0,1,2.172-5.4,6.983,6.983,0,0,1,5.227-2.172,7.662,7.662,0,0,1,5.4,2.359,7.04,7.04,0,0,1,2.172,5.312A6.964,6.964,0,0,1,116.071,273.507Zm-29.1,5.244H98.472v-3.309H90.445v-6.534h7.331V265.6H90.36v-4.616h8.112v-3.309H86.966ZM84.522,267.5H75.1v3.309h5.838a5.288,5.288,0,0,1-2,3.394,6.812,6.812,0,0,1-4.361,1.561,7.024,7.024,0,0,1-5.142-2.359,7.12,7.12,0,0,1-2.172-5.142,7.447,7.447,0,0,1,2.274-5.5,6.855,6.855,0,0,1,5.227-2.172c2.529,0,4.531,1.222,6.279,3.479l2.6-2.24a10.635,10.635,0,0,0-8.893-4.531,10.9,10.9,0,1,0,4.192,20.823,9.332,9.332,0,0,0,3.479-2.613,9.164,9.164,0,0,0,1.833-3.479,13.41,13.41,0,0,0,.356-3.92Zm-30.87-9.945L44.4,278.734h3.835l2-4.7a.854.854,0,0,1,.085-.255c.085,0,.17.085.356.17a10.989,10.989,0,0,0,3.835.7,11.216,11.216,0,0,0,3.394-.526c.441-.085.526-.17.611-.255a.855.855,0,0,1,.085.255l1.918,4.616h3.937L55.4,257.555Zm3.666,13.339-.356.085a10.441,10.441,0,0,1-2.444.356,7.288,7.288,0,0,1-2.444-.356,1.491,1.491,0,0,0-.441-.17,1.492,1.492,0,0,0,.17-.441l2.7-6.449,2.613,6.534A.6.6,0,0,1,57.318,270.893Z" transform="translate(-20 -257.3)" fill="#fff"/>
</svg>
