<svg xmlns="http://www.w3.org/2000/svg" width="14.387" height="13.54" viewBox="0 0 14.387 13.54">
  <g id="_80932" data-name="80932" transform="translate(0 -14.128)">
    <path id="Path_93" data-name="Path 93" d="M6.2,23.683H1.175a.212.212,0,0,1-.212-.212V15.3a.212.212,0,0,1,.212-.212H13.211a.212.212,0,0,1,.212.212v1.789a2.166,2.166,0,0,1,.964.347V15.3a1.177,1.177,0,0,0-1.175-1.175H1.175A1.177,1.177,0,0,0,0,15.3v8.168a1.177,1.177,0,0,0,1.175,1.175H5.209v1.576H4.573a.723.723,0,1,0,0,1.446H6.6a2.166,2.166,0,0,1-.407-1.26V23.683Z" fill="#90a4ae"/>
    <path id="Path_94" data-name="Path 94" d="M242,153.26v-1.041h-2.117v-6.65a.254.254,0,0,1,.254-.254h4.791a.254.254,0,0,1,.254.254v2.058h.361a1.189,1.189,0,0,1,.6.168v-2.226a1.219,1.219,0,0,0-1.218-1.218h-4.791a1.219,1.219,0,0,0-1.218,1.218v7.16a1.219,1.219,0,0,0,1.218,1.218h2.081A1.274,1.274,0,0,1,242,153.26Z" transform="translate(-231.759 -126.321)" fill="#90a4ae"/>
    <path id="Path_95" data-name="Path 95" d="M364.78,273.775h-2.337a.6.6,0,0,0-.6.6v4.427a.6.6,0,0,0,.6.6h2.337a.6.6,0,0,0,.6-.6v-4.427A.6.6,0,0,0,364.78,273.775Zm-2.218.723h2.1v3.827h-2.1Zm1.049,4.618a.259.259,0,1,1,.17-.068A.252.252,0,0,1,363.611,279.116Z" transform="translate(-350.996 -251.866)" fill="#90a4ae"/>
  </g>
</svg>
