<svg xmlns="http://www.w3.org/2000/svg" width="22.454" height="19.086" viewBox="0 0 22.454 19.086">
  <g id="_74577" data-name="74577" transform="translate(0 -29.114)">
    <path id="Path_77" data-name="Path 77" d="M131.518,38.448c2.122,0,3.843-2.09,3.843-4.667s-.565-4.667-3.843-4.667-3.843,2.09-3.843,4.667S129.4,38.448,131.518,38.448Z" transform="translate(-120.291)" fill="#90a4ae"/>
    <path id="Path_78" data-name="Path 78" d="M83.138,203.276c-.071-4.49-.658-5.77-5.145-6.58a3.153,3.153,0,0,1-4.208,0c-4.439.8-5.061,2.062-5.143,6.434-.007.357-.01.376-.011.334,0,.078,0,.221,0,.472,0,0,1.068,2.154,7.257,2.154s7.257-2.154,7.257-2.154c0-.161,0-.273,0-.349A2.829,2.829,0,0,1,83.138,203.276Z" transform="translate(-64.662 -157.889)" fill="#90a4ae"/>
    <path id="Path_79" data-name="Path 79" d="M263.118,52.6c1.724,0,3.121-1.7,3.121-3.791s-.459-3.791-3.121-3.791a4.45,4.45,0,0,0-1.165.138,7.65,7.65,0,0,1,.7,3.609,6.4,6.4,0,0,1-.958,3.416A2.673,2.673,0,0,0,263.118,52.6Z" transform="translate(-246.558 -14.984)" fill="#90a4ae"/>
    <path id="Path_80" data-name="Path 80" d="M289.844,186.469c-.058-3.647-.534-4.686-4.179-5.344a2.185,2.185,0,0,1-1.709.654c-.049,0-.1,0-.145,0a4.8,4.8,0,0,1,1.96,1.518c.88,1.207,1.082,2.828,1.124,5.209,2.452-.485,2.955-1.5,2.955-1.5,0-.132,0-.222,0-.284A2.172,2.172,0,0,1,289.844,186.469Z" transform="translate(-267.397 -143.219)" fill="#90a4ae"/>
    <path id="Path_81" data-name="Path 81" d="M51.076,52.6a2.674,2.674,0,0,0,1.424-.418,6.4,6.4,0,0,1-.958-3.416,7.651,7.651,0,0,1,.7-3.609,4.449,4.449,0,0,0-1.165-.138c-2.662,0-3.121,1.7-3.121,3.791S49.352,52.6,51.076,52.6Z" transform="translate(-45.181 -14.985)" fill="#90a4ae"/>
    <path id="Path_82" data-name="Path 82" d="M6.039,181.774c-.047,0-.1,0-.145,0a2.185,2.185,0,0,1-1.709-.654c-3.645.658-4.121,1.7-4.179,5.344A2.213,2.213,0,0,1,0,186.72c0,.062,0,.152,0,.284,0,0,.5,1.012,2.955,1.5.042-2.381.244-4,1.124-5.209A4.8,4.8,0,0,1,6.039,181.774Z" transform="translate(0 -143.218)" fill="#90a4ae"/>
  </g>
</svg>
