<svg id="_74472" data-name="74472" xmlns="http://www.w3.org/2000/svg" width="35.158" height="46.224" viewBox="0 0 35.158 46.224">
  <path id="Path_68" data-name="Path 68" d="M113.841,22.606c5.139,0,9.306-5.061,9.306-11.3S121.779,0,113.841,0s-9.306,5.061-9.306,11.3S108.7,22.606,113.841,22.606Z" transform="translate(-96.262 0)" fill="#fff"/>
  <path id="Path_69" data-name="Path 69" d="M41.9,300.567c0-.381,0-.107,0,0Z" transform="translate(-41.895 -260.703)" fill="#fff"/>
  <path id="Path_70" data-name="Path 70" d="M308.085,301.832c.005-.1,0-.723,0,0Z" transform="translate(-272.93 -261.67)" fill="#fff"/>
  <path id="Path_71" data-name="Path 71" d="M77.041,193.675C76.869,182.8,75.449,179.7,64.581,177.74a6.515,6.515,0,0,1-5.1,1.949,6.516,6.516,0,0,1-5.1-1.949c-10.75,1.94-12.256,4.993-12.454,15.582-.016.865-.024.91-.027.81,0,.188,0,.536,0,1.143,0,0,2.587,5.216,17.576,5.216s17.576-5.216,17.576-5.216c0-.39,0-.661,0-.845A6.992,6.992,0,0,1,77.041,193.675Z" transform="translate(-41.906 -154.266)" fill="#fff"/>
</svg>
